<mxfile host="app.diagrams.net" agent="Mozilla/5.0 (Windows NT 10.0; Win64; x64; rv:131.0) Gecko/20100101 Firefox/131.0" version="24.7.17">
  <diagram name="Side-1" id="dMUGcVXos-jWxhz2v037">
    <mxGraphModel dx="1085" dy="585" grid="1" gridSize="10" guides="1" tooltips="1" connect="1" arrows="1" fold="1" page="1" pageScale="1" pageWidth="850" pageHeight="1100" math="0" shadow="0">
      <root>
        <mxCell id="0" />
        <mxCell id="1" parent="0" />
        <mxCell id="aV-225S5VhiXVsiixpyh-3" value="" style="edgeStyle=orthogonalEdgeStyle;rounded=0;orthogonalLoop=1;jettySize=auto;html=1;" edge="1" parent="1" source="aV-225S5VhiXVsiixpyh-1" target="aV-225S5VhiXVsiixpyh-2">
          <mxGeometry relative="1" as="geometry" />
        </mxCell>
        <mxCell id="aV-225S5VhiXVsiixpyh-1" value="START" style="ellipse;whiteSpace=wrap;html=1;fillColor=#d5e8d4;strokeColor=#82b366;" vertex="1" parent="1">
          <mxGeometry x="230" y="50" width="120" height="80" as="geometry" />
        </mxCell>
        <mxCell id="aV-225S5VhiXVsiixpyh-5" value="" style="edgeStyle=orthogonalEdgeStyle;rounded=0;orthogonalLoop=1;jettySize=auto;html=1;" edge="1" parent="1" source="aV-225S5VhiXVsiixpyh-2" target="aV-225S5VhiXVsiixpyh-4">
          <mxGeometry relative="1" as="geometry" />
        </mxCell>
        <mxCell id="aV-225S5VhiXVsiixpyh-2" value="&lt;div&gt;indtast &lt;br&gt;&lt;/div&gt;&lt;div&gt;tal 1&lt;br&gt;&lt;/div&gt;" style="shape=parallelogram;perimeter=parallelogramPerimeter;whiteSpace=wrap;html=1;fixedSize=1;" vertex="1" parent="1">
          <mxGeometry x="230" y="160" width="120" height="60" as="geometry" />
        </mxCell>
        <mxCell id="aV-225S5VhiXVsiixpyh-8" value="" style="edgeStyle=orthogonalEdgeStyle;rounded=0;orthogonalLoop=1;jettySize=auto;html=1;" edge="1" parent="1" source="aV-225S5VhiXVsiixpyh-4" target="aV-225S5VhiXVsiixpyh-7">
          <mxGeometry relative="1" as="geometry" />
        </mxCell>
        <mxCell id="aV-225S5VhiXVsiixpyh-4" value="&lt;div&gt;indtast &lt;br&gt;&lt;/div&gt;&lt;div&gt;tal 2&lt;br&gt;&lt;/div&gt;" style="shape=parallelogram;perimeter=parallelogramPerimeter;whiteSpace=wrap;html=1;fixedSize=1;" vertex="1" parent="1">
          <mxGeometry x="230" y="250" width="120" height="60" as="geometry" />
        </mxCell>
        <mxCell id="aV-225S5VhiXVsiixpyh-10" value="" style="edgeStyle=orthogonalEdgeStyle;rounded=0;orthogonalLoop=1;jettySize=auto;html=1;" edge="1" parent="1" source="aV-225S5VhiXVsiixpyh-7" target="aV-225S5VhiXVsiixpyh-9">
          <mxGeometry relative="1" as="geometry" />
        </mxCell>
        <mxCell id="aV-225S5VhiXVsiixpyh-7" value="&lt;div&gt;Beregn resultatet af&lt;/div&gt;&lt;div&gt;tal 1 + tal 2&lt;br&gt;&lt;/div&gt;" style="whiteSpace=wrap;html=1;" vertex="1" parent="1">
          <mxGeometry x="230" y="340" width="120" height="60" as="geometry" />
        </mxCell>
        <mxCell id="aV-225S5VhiXVsiixpyh-12" style="edgeStyle=orthogonalEdgeStyle;rounded=0;orthogonalLoop=1;jettySize=auto;html=1;exitX=0.5;exitY=1;exitDx=0;exitDy=0;entryX=0.5;entryY=0;entryDx=0;entryDy=0;" edge="1" parent="1" source="aV-225S5VhiXVsiixpyh-9" target="aV-225S5VhiXVsiixpyh-11">
          <mxGeometry relative="1" as="geometry" />
        </mxCell>
        <mxCell id="aV-225S5VhiXVsiixpyh-9" value="&lt;div&gt;print &lt;br&gt;&lt;/div&gt;&lt;div&gt;resultatet&lt;br&gt;&lt;/div&gt;" style="shape=parallelogram;perimeter=parallelogramPerimeter;whiteSpace=wrap;html=1;fixedSize=1;" vertex="1" parent="1">
          <mxGeometry x="230" y="440" width="120" height="60" as="geometry" />
        </mxCell>
        <mxCell id="aV-225S5VhiXVsiixpyh-11" value="STOP" style="ellipse;whiteSpace=wrap;html=1;fillColor=#f8cecc;strokeColor=#b85450;" vertex="1" parent="1">
          <mxGeometry x="230" y="520" width="120" height="80" as="geometry" />
        </mxCell>
      </root>
    </mxGraphModel>
  </diagram>
</mxfile>
